<mxfile host="app.diagrams.net" modified="2024-03-26T06:29:31.030Z" agent="Mozilla/5.0 (Windows NT 10.0; Win64; x64) AppleWebKit/537.36 (KHTML, like Gecko) Chrome/122.0.0.0 Safari/537.36" etag="Ai_y51q8zdI_8_tV1dFa" version="24.0.7" type="github">
  <diagram name="第 1 页" id="OhXY_Rm7CWS5pItQMr-S">
    <mxGraphModel dx="1509" dy="1946" grid="1" gridSize="10" guides="1" tooltips="1" connect="1" arrows="1" fold="1" page="1" pageScale="1" pageWidth="827" pageHeight="1169" math="0" shadow="0">
      <root>
        <mxCell id="0" />
        <mxCell id="1" parent="0" />
        <mxCell id="94YO7ol4zPPNbiTvRvZd-56" value="" style="rounded=0;whiteSpace=wrap;html=1;dashed=1;strokeWidth=3;strokeColor=#00994D;fontSize=15;fontFamily=宋体;fontSource=https%3A%2F%2Ffonts.googleapis.com%2Fcss%3Ffamily%3D%25E5%25AE%258B%25E4%25BD%2593;" parent="1" vertex="1">
          <mxGeometry x="600" y="460" width="280" height="270" as="geometry" />
        </mxCell>
        <mxCell id="94YO7ol4zPPNbiTvRvZd-57" value="" style="rounded=0;whiteSpace=wrap;html=1;dashed=1;strokeWidth=2;fontSize=15;fontFamily=宋体;fontSource=https%3A%2F%2Ffonts.googleapis.com%2Fcss%3Ffamily%3D%25E5%25AE%258B%25E4%25BD%2593;" parent="1" vertex="1">
          <mxGeometry x="80" y="252.5" width="420" height="747.5" as="geometry" />
        </mxCell>
        <mxCell id="94YO7ol4zPPNbiTvRvZd-58" value="变异操作" style="rounded=0;whiteSpace=wrap;html=1;fontSize=15;strokeColor=none;fontFamily=宋体;fontSource=https%3A%2F%2Ffonts.googleapis.com%2Fcss%3Ffamily%3D%25E5%25AE%258B%25E4%25BD%2593;" parent="1" vertex="1">
          <mxGeometry x="130" y="272" width="90" height="40" as="geometry" />
        </mxCell>
        <mxCell id="94YO7ol4zPPNbiTvRvZd-61" value="" style="edgeStyle=orthogonalEdgeStyle;rounded=0;orthogonalLoop=1;jettySize=auto;html=1;noEdgeStyle=1;orthogonal=1;fontSize=15;fontFamily=宋体;fontSource=https%3A%2F%2Ffonts.googleapis.com%2Fcss%3Ffamily%3D%25E5%25AE%258B%25E4%25BD%2593;" parent="1" target="94YO7ol4zPPNbiTvRvZd-64" edge="1">
          <mxGeometry relative="1" as="geometry">
            <mxPoint x="530" y="20" as="sourcePoint" />
          </mxGeometry>
        </mxCell>
        <mxCell id="94YO7ol4zPPNbiTvRvZd-63" value="" style="edgeStyle=orthogonalEdgeStyle;rounded=0;orthogonalLoop=1;jettySize=auto;html=1;noEdgeStyle=1;orthogonal=1;fontSize=15;fontFamily=宋体;fontSource=https%3A%2F%2Ffonts.googleapis.com%2Fcss%3Ffamily%3D%25E5%25AE%258B%25E4%25BD%2593;" parent="1" source="94YO7ol4zPPNbiTvRvZd-64" target="94YO7ol4zPPNbiTvRvZd-66" edge="1">
          <mxGeometry relative="1" as="geometry" />
        </mxCell>
        <mxCell id="94YO7ol4zPPNbiTvRvZd-64" value="采用混合编码方式初始化种群并引入优秀个体" style="rounded=0;whiteSpace=wrap;html=1;fontSize=15;fontFamily=宋体;fontSource=https%3A%2F%2Ffonts.googleapis.com%2Fcss%3Ffamily%3D%25E5%25AE%258B%25E4%25BD%2593;" parent="1" vertex="1">
          <mxGeometry x="440" y="50" width="170" height="60" as="geometry" />
        </mxCell>
        <mxCell id="94YO7ol4zPPNbiTvRvZd-65" style="edgeStyle=orthogonalEdgeStyle;rounded=0;orthogonalLoop=1;jettySize=auto;html=1;exitX=0.5;exitY=1;exitDx=0;exitDy=0;entryX=0.5;entryY=0;entryDx=0;entryDy=0;fontSize=15;fontFamily=宋体;fontSource=https%3A%2F%2Ffonts.googleapis.com%2Fcss%3Ffamily%3D%25E5%25AE%258B%25E4%25BD%2593;" parent="1" source="94YO7ol4zPPNbiTvRvZd-66" target="94YO7ol4zPPNbiTvRvZd-85" edge="1">
          <mxGeometry relative="1" as="geometry" />
        </mxCell>
        <mxCell id="94YO7ol4zPPNbiTvRvZd-66" value="交叉操作" style="rounded=0;whiteSpace=wrap;html=1;fontSize=15;fontFamily=宋体;fontSource=https%3A%2F%2Ffonts.googleapis.com%2Fcss%3Ffamily%3D%25E5%25AE%258B%25E4%25BD%2593;" parent="1" vertex="1">
          <mxGeometry x="450" y="150" width="160" height="40" as="geometry" />
        </mxCell>
        <mxCell id="94YO7ol4zPPNbiTvRvZd-67" value="" style="edgeStyle=orthogonalEdgeStyle;rounded=0;orthogonalLoop=1;jettySize=auto;html=1;fontSize=15;fontFamily=宋体;fontSource=https%3A%2F%2Ffonts.googleapis.com%2Fcss%3Ffamily%3D%25E5%25AE%258B%25E4%25BD%2593;" parent="1" source="94YO7ol4zPPNbiTvRvZd-68" target="94YO7ol4zPPNbiTvRvZd-71" edge="1">
          <mxGeometry relative="1" as="geometry" />
        </mxCell>
        <mxCell id="94YO7ol4zPPNbiTvRvZd-68" value="选择操作" style="rounded=0;whiteSpace=wrap;html=1;fontSize=15;fontFamily=宋体;fontSource=https%3A%2F%2Ffonts.googleapis.com%2Fcss%3Ffamily%3D%25E5%25AE%258B%25E4%25BD%2593;" parent="1" vertex="1">
          <mxGeometry x="658" y="767" width="160" height="40" as="geometry" />
        </mxCell>
        <mxCell id="94YO7ol4zPPNbiTvRvZd-69" value="" style="edgeStyle=orthogonalEdgeStyle;rounded=0;orthogonalLoop=1;jettySize=auto;html=1;fontSize=15;fontFamily=宋体;fontSource=https%3A%2F%2Ffonts.googleapis.com%2Fcss%3Ffamily%3D%25E5%25AE%258B%25E4%25BD%2593;" parent="1" source="94YO7ol4zPPNbiTvRvZd-71" edge="1">
          <mxGeometry relative="1" as="geometry">
            <mxPoint x="738" y="950" as="targetPoint" />
          </mxGeometry>
        </mxCell>
        <mxCell id="94YO7ol4zPPNbiTvRvZd-70" style="edgeStyle=orthogonalEdgeStyle;rounded=0;orthogonalLoop=1;jettySize=auto;html=1;exitX=1;exitY=0.5;exitDx=0;exitDy=0;entryX=1;entryY=0.5;entryDx=0;entryDy=0;fontSize=15;fontFamily=宋体;fontSource=https%3A%2F%2Ffonts.googleapis.com%2Fcss%3Ffamily%3D%25E5%25AE%258B%25E4%25BD%2593;" parent="1" source="94YO7ol4zPPNbiTvRvZd-71" target="94YO7ol4zPPNbiTvRvZd-66" edge="1">
          <mxGeometry relative="1" as="geometry">
            <Array as="points">
              <mxPoint x="920" y="834" />
              <mxPoint x="920" y="170" />
            </Array>
          </mxGeometry>
        </mxCell>
        <mxCell id="94YO7ol4zPPNbiTvRvZd-71" value="是否满足终止条件" style="rhombus;whiteSpace=wrap;html=1;fontSize=15;fontFamily=宋体;fontSource=https%3A%2F%2Ffonts.googleapis.com%2Fcss%3Ffamily%3D%25E5%25AE%258B%25E4%25BD%2593;" parent="1" vertex="1">
          <mxGeometry x="658" y="854" width="160" height="60" as="geometry" />
        </mxCell>
        <mxCell id="94YO7ol4zPPNbiTvRvZd-73" value="是" style="text;html=1;align=center;verticalAlign=middle;resizable=0;points=[];autosize=1;strokeColor=none;fillColor=none;fontSize=15;fontFamily=宋体;fontSource=https%3A%2F%2Ffonts.googleapis.com%2Fcss%3Ffamily%3D%25E5%25AE%258B%25E4%25BD%2593;" parent="1" vertex="1">
          <mxGeometry x="690" y="914" width="40" height="30" as="geometry" />
        </mxCell>
        <mxCell id="t564csV_KIHhUvOr9KIf-11" value="" style="edgeStyle=orthogonalEdgeStyle;rounded=0;orthogonalLoop=1;jettySize=auto;html=1;fontFamily=宋体;fontSource=https%3A%2F%2Ffonts.googleapis.com%2Fcss%3Ffamily%3D%25E5%25AE%258B%25E4%25BD%2593;fontSize=15;" parent="1" source="94YO7ol4zPPNbiTvRvZd-85" target="94YO7ol4zPPNbiTvRvZd-90" edge="1">
          <mxGeometry relative="1" as="geometry" />
        </mxCell>
        <mxCell id="94YO7ol4zPPNbiTvRvZd-85" value="随机数&lt;font face=&quot;Times New Roman&quot;&gt;cr&amp;gt;q&lt;sub style=&quot;font-size: 15px;&quot;&gt;&lt;font style=&quot;font-size: 15px;&quot;&gt;G&lt;/font&gt;&lt;/sub&gt;/Q&lt;/font&gt;?&lt;span style=&quot;font-size: 15px;&quot; lang=&quot;EN-US&quot;&gt;&lt;/span&gt;" style="rhombus;whiteSpace=wrap;html=1;fontSize=15;fontFamily=宋体;fontSource=https%3A%2F%2Ffonts.googleapis.com%2Fcss%3Ffamily%3D%25E5%25AE%258B%25E4%25BD%2593;" parent="1" vertex="1">
          <mxGeometry x="316" y="280" width="180" height="70" as="geometry" />
        </mxCell>
        <mxCell id="t564csV_KIHhUvOr9KIf-16" value="" style="edgeStyle=orthogonalEdgeStyle;rounded=0;orthogonalLoop=1;jettySize=auto;html=1;fontFamily=宋体;fontSource=https%3A%2F%2Ffonts.googleapis.com%2Fcss%3Ffamily%3D%25E5%25AE%258B%25E4%25BD%2593;fontSize=15;" parent="1" source="94YO7ol4zPPNbiTvRvZd-88" target="94YO7ol4zPPNbiTvRvZd-91" edge="1">
          <mxGeometry relative="1" as="geometry" />
        </mxCell>
        <mxCell id="94YO7ol4zPPNbiTvRvZd-88" value="可行解占比小于&lt;font face=&quot;Times New Roman&quot;&gt;p&lt;sub style=&quot;font-size: 15px;&quot;&gt;ca&lt;/sub&gt;&lt;/font&gt;？" style="rhombus;whiteSpace=wrap;html=1;fontSize=15;fontFamily=宋体;fontSource=https%3A%2F%2Ffonts.googleapis.com%2Fcss%3Ffamily%3D%25E5%25AE%258B%25E4%25BD%2593;" parent="1" vertex="1">
          <mxGeometry x="85" y="650" width="180" height="70" as="geometry" />
        </mxCell>
        <mxCell id="t564csV_KIHhUvOr9KIf-15" style="edgeStyle=orthogonalEdgeStyle;rounded=0;orthogonalLoop=1;jettySize=auto;html=1;exitX=0.5;exitY=1;exitDx=0;exitDy=0;fontFamily=宋体;fontSource=https%3A%2F%2Ffonts.googleapis.com%2Fcss%3Ffamily%3D%25E5%25AE%258B%25E4%25BD%2593;fontSize=15;" parent="1" source="94YO7ol4zPPNbiTvRvZd-90" target="94YO7ol4zPPNbiTvRvZd-88" edge="1">
          <mxGeometry relative="1" as="geometry">
            <Array as="points">
              <mxPoint x="406" y="620" />
              <mxPoint x="175" y="620" />
            </Array>
          </mxGeometry>
        </mxCell>
        <mxCell id="94YO7ol4zPPNbiTvRvZd-90" value="使用固定的变异概率与邻域搜索范围" style="rounded=0;whiteSpace=wrap;html=1;fontSize=15;fontFamily=宋体;fontSource=https%3A%2F%2Ffonts.googleapis.com%2Fcss%3Ffamily%3D%25E5%25AE%258B%25E4%25BD%2593;" parent="1" vertex="1">
          <mxGeometry x="346" y="437" width="120" height="60" as="geometry" />
        </mxCell>
        <mxCell id="94YO7ol4zPPNbiTvRvZd-91" value="使用随机变异方式" style="rounded=0;whiteSpace=wrap;html=1;fontSize=15;fontFamily=宋体;fontSource=https%3A%2F%2Ffonts.googleapis.com%2Fcss%3Ffamily%3D%25E5%25AE%258B%25E4%25BD%2593;" parent="1" vertex="1">
          <mxGeometry x="115" y="790" width="120" height="60" as="geometry" />
        </mxCell>
        <mxCell id="94YO7ol4zPPNbiTvRvZd-92" style="edgeStyle=orthogonalEdgeStyle;rounded=0;orthogonalLoop=1;jettySize=auto;html=1;exitX=0.5;exitY=1;exitDx=0;exitDy=0;fontSize=15;fontFamily=宋体;fontSource=https%3A%2F%2Ffonts.googleapis.com%2Fcss%3Ffamily%3D%25E5%25AE%258B%25E4%25BD%2593;" parent="1" source="94YO7ol4zPPNbiTvRvZd-98" target="94YO7ol4zPPNbiTvRvZd-68" edge="1">
          <mxGeometry relative="1" as="geometry" />
        </mxCell>
        <mxCell id="94YO7ol4zPPNbiTvRvZd-93" value="是" style="text;html=1;align=center;verticalAlign=middle;resizable=0;points=[];autosize=1;strokeColor=none;fillColor=none;fontSize=15;fontFamily=宋体;fontSource=https%3A%2F%2Ffonts.googleapis.com%2Fcss%3Ffamily%3D%25E5%25AE%258B%25E4%25BD%2593;" parent="1" vertex="1">
          <mxGeometry x="250" y="320" width="40" height="30" as="geometry" />
        </mxCell>
        <mxCell id="94YO7ol4zPPNbiTvRvZd-94" value="是" style="text;html=1;align=center;verticalAlign=middle;resizable=0;points=[];autosize=1;strokeColor=none;fillColor=none;fontSize=15;fontFamily=宋体;fontSource=https%3A%2F%2Ffonts.googleapis.com%2Fcss%3Ffamily%3D%25E5%25AE%258B%25E4%25BD%2593;" parent="1" vertex="1">
          <mxGeometry x="280" y="690" width="40" height="30" as="geometry" />
        </mxCell>
        <mxCell id="94YO7ol4zPPNbiTvRvZd-95" value="否" style="text;html=1;align=center;verticalAlign=middle;resizable=0;points=[];autosize=1;strokeColor=none;fillColor=none;fontSize=15;fontFamily=宋体;fontSource=https%3A%2F%2Ffonts.googleapis.com%2Fcss%3Ffamily%3D%25E5%25AE%258B%25E4%25BD%2593;" parent="1" vertex="1">
          <mxGeometry x="410" y="370" width="40" height="30" as="geometry" />
        </mxCell>
        <mxCell id="94YO7ol4zPPNbiTvRvZd-96" value="否" style="text;html=1;align=center;verticalAlign=middle;resizable=0;points=[];autosize=1;strokeColor=none;fillColor=none;fontSize=15;fontFamily=宋体;fontSource=https%3A%2F%2Ffonts.googleapis.com%2Fcss%3Ffamily%3D%25E5%25AE%258B%25E4%25BD%2593;" parent="1" vertex="1">
          <mxGeometry x="130" y="740" width="40" height="30" as="geometry" />
        </mxCell>
        <mxCell id="94YO7ol4zPPNbiTvRvZd-97" value="否" style="text;html=1;align=center;verticalAlign=middle;resizable=0;points=[];autosize=1;strokeColor=none;fillColor=none;fontSize=15;fontFamily=宋体;fontSource=https%3A%2F%2Ffonts.googleapis.com%2Fcss%3Ffamily%3D%25E5%25AE%258B%25E4%25BD%2593;" parent="1" vertex="1">
          <mxGeometry x="850" y="850" width="40" height="30" as="geometry" />
        </mxCell>
        <mxCell id="94YO7ol4zPPNbiTvRvZd-98" value="重新计算目标值约束值" style="rounded=0;whiteSpace=wrap;html=1;fontSize=15;fontFamily=宋体;fontSource=https%3A%2F%2Ffonts.googleapis.com%2Fcss%3Ffamily%3D%25E5%25AE%258B%25E4%25BD%2593;" parent="1" vertex="1">
          <mxGeometry x="658" y="671" width="160" height="40" as="geometry" />
        </mxCell>
        <mxCell id="94YO7ol4zPPNbiTvRvZd-99" style="edgeStyle=orthogonalEdgeStyle;rounded=0;orthogonalLoop=1;jettySize=auto;html=1;exitX=1;exitY=0.5;exitDx=0;exitDy=0;entryX=1;entryY=0.5;entryDx=0;entryDy=0;fontSize=15;fontFamily=宋体;fontSource=https%3A%2F%2Ffonts.googleapis.com%2Fcss%3Ffamily%3D%25E5%25AE%258B%25E4%25BD%2593;" parent="1" source="94YO7ol4zPPNbiTvRvZd-100" target="94YO7ol4zPPNbiTvRvZd-68" edge="1">
          <mxGeometry relative="1" as="geometry">
            <Array as="points">
              <mxPoint x="900" y="402" />
              <mxPoint x="900" y="787" />
            </Array>
          </mxGeometry>
        </mxCell>
        <mxCell id="94YO7ol4zPPNbiTvRvZd-100" value="是否为可行解" style="rhombus;whiteSpace=wrap;html=1;fontSize=15;fontFamily=宋体;fontSource=https%3A%2F%2Ffonts.googleapis.com%2Fcss%3Ffamily%3D%25E5%25AE%258B%25E4%25BD%2593;" parent="1" vertex="1">
          <mxGeometry x="658" y="372" width="160" height="60" as="geometry" />
        </mxCell>
        <mxCell id="94YO7ol4zPPNbiTvRvZd-101" value="计算任务动态冲突度" style="rounded=0;whiteSpace=wrap;html=1;fontSize=15;fontFamily=宋体;fontSource=https%3A%2F%2Ffonts.googleapis.com%2Fcss%3Ffamily%3D%25E5%25AE%258B%25E4%25BD%2593;" parent="1" vertex="1">
          <mxGeometry x="658" y="478" width="160" height="40" as="geometry" />
        </mxCell>
        <mxCell id="94YO7ol4zPPNbiTvRvZd-102" value="" style="edgeStyle=orthogonalEdgeStyle;rounded=0;orthogonalLoop=1;jettySize=auto;html=1;fontSize=15;fontFamily=宋体;fontSource=https%3A%2F%2Ffonts.googleapis.com%2Fcss%3Ffamily%3D%25E5%25AE%258B%25E4%25BD%2593;" parent="1" source="94YO7ol4zPPNbiTvRvZd-100" target="94YO7ol4zPPNbiTvRvZd-101" edge="1">
          <mxGeometry relative="1" as="geometry" />
        </mxCell>
        <mxCell id="94YO7ol4zPPNbiTvRvZd-103" value="" style="edgeStyle=orthogonalEdgeStyle;rounded=0;orthogonalLoop=1;jettySize=auto;html=1;fontSize=15;fontFamily=宋体;fontSource=https%3A%2F%2Ffonts.googleapis.com%2Fcss%3Ffamily%3D%25E5%25AE%258B%25E4%25BD%2593;" parent="1" source="94YO7ol4zPPNbiTvRvZd-104" target="94YO7ol4zPPNbiTvRvZd-98" edge="1">
          <mxGeometry relative="1" as="geometry" />
        </mxCell>
        <mxCell id="94YO7ol4zPPNbiTvRvZd-104" value="“消除”造成冲突最大的任务" style="rounded=0;whiteSpace=wrap;html=1;fontSize=15;fontFamily=宋体;fontSource=https%3A%2F%2Ffonts.googleapis.com%2Fcss%3Ffamily%3D%25E5%25AE%258B%25E4%25BD%2593;" parent="1" vertex="1">
          <mxGeometry x="658" y="575" width="160" height="40" as="geometry" />
        </mxCell>
        <mxCell id="94YO7ol4zPPNbiTvRvZd-105" value="" style="edgeStyle=orthogonalEdgeStyle;rounded=0;orthogonalLoop=1;jettySize=auto;html=1;noEdgeStyle=1;orthogonal=1;fontSize=15;fontFamily=宋体;fontSource=https%3A%2F%2Ffonts.googleapis.com%2Fcss%3Ffamily%3D%25E5%25AE%258B%25E4%25BD%2593;" parent="1" source="94YO7ol4zPPNbiTvRvZd-101" target="94YO7ol4zPPNbiTvRvZd-104" edge="1">
          <mxGeometry relative="1" as="geometry" />
        </mxCell>
        <mxCell id="94YO7ol4zPPNbiTvRvZd-106" value="是" style="text;html=1;align=center;verticalAlign=middle;resizable=0;points=[];autosize=1;strokeColor=none;fillColor=none;fontSize=15;fontFamily=宋体;fontSource=https%3A%2F%2Ffonts.googleapis.com%2Fcss%3Ffamily%3D%25E5%25AE%258B%25E4%25BD%2593;" parent="1" vertex="1">
          <mxGeometry x="830" y="370" width="40" height="30" as="geometry" />
        </mxCell>
        <mxCell id="94YO7ol4zPPNbiTvRvZd-107" value="否" style="text;html=1;align=center;verticalAlign=middle;resizable=0;points=[];autosize=1;strokeColor=none;fillColor=none;fontSize=15;fontFamily=宋体;fontSource=https%3A%2F%2Ffonts.googleapis.com%2Fcss%3Ffamily%3D%25E5%25AE%258B%25E4%25BD%2593;" parent="1" vertex="1">
          <mxGeometry x="698" y="431" width="40" height="30" as="geometry" />
        </mxCell>
        <mxCell id="t564csV_KIHhUvOr9KIf-10" value="" style="group;fontFamily=宋体;fontSource=https%3A%2F%2Ffonts.googleapis.com%2Fcss%3Ffamily%3D%25E5%25AE%258B%25E4%25BD%2593;fontSize=15;" parent="1" vertex="1" connectable="0">
          <mxGeometry x="260" y="740" width="230" height="220" as="geometry" />
        </mxCell>
        <mxCell id="94YO7ol4zPPNbiTvRvZd-59" value="" style="rounded=0;whiteSpace=wrap;html=1;dashed=1;strokeWidth=3;strokeColor=#FF9999;fontSize=15;fontFamily=宋体;fontSource=https%3A%2F%2Ffonts.googleapis.com%2Fcss%3Ffamily%3D%25E5%25AE%258B%25E4%25BD%2593;" parent="t564csV_KIHhUvOr9KIf-10" vertex="1">
          <mxGeometry width="230" height="220" as="geometry" />
        </mxCell>
        <mxCell id="94YO7ol4zPPNbiTvRvZd-79" style="edgeStyle=orthogonalEdgeStyle;rounded=0;orthogonalLoop=1;jettySize=auto;html=1;exitX=0.5;exitY=1;exitDx=0;exitDy=0;entryX=0.5;entryY=0;entryDx=0;entryDy=0;fontFamily=宋体;fontSource=https%3A%2F%2Ffonts.googleapis.com%2Fcss%3Ffamily%3D%25E5%25AE%258B%25E4%25BD%2593;fontSize=15;" parent="t564csV_KIHhUvOr9KIf-10" source="94YO7ol4zPPNbiTvRvZd-80" target="94YO7ol4zPPNbiTvRvZd-81" edge="1">
          <mxGeometry relative="1" as="geometry" />
        </mxCell>
        <mxCell id="94YO7ol4zPPNbiTvRvZd-82" value="&lt;b&gt;冲突感知变异算子&lt;/b&gt;" style="rounded=0;whiteSpace=wrap;html=1;fontSize=15;strokeColor=none;fontColor=#FF3333;fontFamily=宋体;fontSource=https%3A%2F%2Ffonts.googleapis.com%2Fcss%3Ffamily%3D%25E5%25AE%258B%25E4%25BD%2593;" parent="t564csV_KIHhUvOr9KIf-10" vertex="1">
          <mxGeometry x="6" y="40" width="30" height="130" as="geometry" />
        </mxCell>
        <mxCell id="94YO7ol4zPPNbiTvRvZd-80" value="为任务可用时间窗口集合的每个时间窗口计算被选中的概率" style="rounded=0;whiteSpace=wrap;html=1;fontSize=15;fontFamily=宋体;fontSource=https%3A%2F%2Ffonts.googleapis.com%2Fcss%3Ffamily%3D%25E5%25AE%258B%25E4%25BD%2593;" parent="t564csV_KIHhUvOr9KIf-10" vertex="1">
          <mxGeometry x="40" y="27.5" width="170" height="60" as="geometry" />
        </mxCell>
        <mxCell id="94YO7ol4zPPNbiTvRvZd-81" value="利用轮盘赌机制确定变异方向" style="rounded=0;whiteSpace=wrap;html=1;fontSize=15;fontFamily=宋体;fontSource=https%3A%2F%2Ffonts.googleapis.com%2Fcss%3Ffamily%3D%25E5%25AE%258B%25E4%25BD%2593;" parent="t564csV_KIHhUvOr9KIf-10" vertex="1">
          <mxGeometry x="40" y="123" width="170" height="60" as="geometry" />
        </mxCell>
        <mxCell id="94YO7ol4zPPNbiTvRvZd-108" value="&lt;b&gt;动态冲突消解策略&lt;/b&gt;" style="rounded=0;whiteSpace=wrap;html=1;fontSize=15;strokeColor=none;fontColor=#00CC00;fontFamily=宋体;fontSource=https%3A%2F%2Ffonts.googleapis.com%2Fcss%3Ffamily%3D%25E5%25AE%258B%25E4%25BD%2593;" parent="1" vertex="1">
          <mxGeometry x="610" y="460" width="30" height="230" as="geometry" />
        </mxCell>
        <mxCell id="t564csV_KIHhUvOr9KIf-9" value="" style="group;fontFamily=宋体;fontSource=https%3A%2F%2Ffonts.googleapis.com%2Fcss%3Ffamily%3D%25E5%25AE%258B%25E4%25BD%2593;fontSize=15;fontStyle=1" parent="1" vertex="1" connectable="0">
          <mxGeometry x="100" y="380" width="230" height="205" as="geometry" />
        </mxCell>
        <mxCell id="94YO7ol4zPPNbiTvRvZd-60" value="" style="rounded=0;whiteSpace=wrap;html=1;dashed=1;strokeColor=#A9C4EB;strokeWidth=3;fontSize=15;fontFamily=宋体;fontSource=https%3A%2F%2Ffonts.googleapis.com%2Fcss%3Ffamily%3D%25E5%25AE%258B%25E4%25BD%2593;" parent="t564csV_KIHhUvOr9KIf-9" vertex="1">
          <mxGeometry width="230" height="205" as="geometry" />
        </mxCell>
        <mxCell id="94YO7ol4zPPNbiTvRvZd-74" value="&lt;b&gt;性能驱动变异策略&lt;/b&gt;" style="rounded=0;whiteSpace=wrap;html=1;fontSize=15;strokeColor=none;fontColor=#7EA6E0;fontFamily=宋体;fontSource=https%3A%2F%2Ffonts.googleapis.com%2Fcss%3Ffamily%3D%25E5%25AE%258B%25E4%25BD%2593;" parent="t564csV_KIHhUvOr9KIf-9" vertex="1">
          <mxGeometry x="6" y="40" width="30" height="130" as="geometry" />
        </mxCell>
        <mxCell id="94YO7ol4zPPNbiTvRvZd-76" value="根据分阶段的个体支配计算每个个体支配其他个体的个数" style="rounded=0;whiteSpace=wrap;html=1;fontSize=15;fontFamily=宋体;fontSource=https%3A%2F%2Ffonts.googleapis.com%2Fcss%3Ffamily%3D%25E5%25AE%258B%25E4%25BD%2593;" parent="t564csV_KIHhUvOr9KIf-9" vertex="1">
          <mxGeometry x="40" y="29" width="170" height="60" as="geometry" />
        </mxCell>
        <mxCell id="94YO7ol4zPPNbiTvRvZd-78" value="计算个体变异概率，确定可变邻域搜索范围" style="whiteSpace=wrap;html=1;rounded=0;fontSize=15;fontFamily=宋体;fontSource=https%3A%2F%2Ffonts.googleapis.com%2Fcss%3Ffamily%3D%25E5%25AE%258B%25E4%25BD%2593;" parent="t564csV_KIHhUvOr9KIf-9" vertex="1">
          <mxGeometry x="40" y="120" width="170" height="60" as="geometry" />
        </mxCell>
        <mxCell id="94YO7ol4zPPNbiTvRvZd-75" value="" style="edgeStyle=orthogonalEdgeStyle;rounded=0;orthogonalLoop=1;jettySize=auto;html=1;fontSize=15;fontFamily=宋体;fontSource=https%3A%2F%2Ffonts.googleapis.com%2Fcss%3Ffamily%3D%25E5%25AE%258B%25E4%25BD%2593;" parent="t564csV_KIHhUvOr9KIf-9" source="94YO7ol4zPPNbiTvRvZd-76" target="94YO7ol4zPPNbiTvRvZd-78" edge="1">
          <mxGeometry relative="1" as="geometry" />
        </mxCell>
        <mxCell id="t564csV_KIHhUvOr9KIf-13" style="edgeStyle=orthogonalEdgeStyle;rounded=0;orthogonalLoop=1;jettySize=auto;html=1;exitX=0.5;exitY=1;exitDx=0;exitDy=0;fontFamily=宋体;fontSource=https%3A%2F%2Ffonts.googleapis.com%2Fcss%3Ffamily%3D%25E5%25AE%258B%25E4%25BD%2593;fontSize=15;" parent="1" source="94YO7ol4zPPNbiTvRvZd-78" target="94YO7ol4zPPNbiTvRvZd-88" edge="1">
          <mxGeometry relative="1" as="geometry">
            <Array as="points">
              <mxPoint x="225" y="620" />
              <mxPoint x="175" y="620" />
            </Array>
          </mxGeometry>
        </mxCell>
        <mxCell id="t564csV_KIHhUvOr9KIf-18" style="edgeStyle=orthogonalEdgeStyle;rounded=0;orthogonalLoop=1;jettySize=auto;html=1;exitX=0.5;exitY=1;exitDx=0;exitDy=0;entryX=0;entryY=0.5;entryDx=0;entryDy=0;fontFamily=宋体;fontSource=https%3A%2F%2Ffonts.googleapis.com%2Fcss%3Ffamily%3D%25E5%25AE%258B%25E4%25BD%2593;fontSize=15;" parent="1" source="94YO7ol4zPPNbiTvRvZd-81" target="sRDRi-Vm4RHFxVxqKnM_-7" edge="1">
          <mxGeometry relative="1" as="geometry">
            <Array as="points">
              <mxPoint x="385" y="980" />
              <mxPoint x="560" y="980" />
              <mxPoint x="560" y="230" />
            </Array>
          </mxGeometry>
        </mxCell>
        <mxCell id="t564csV_KIHhUvOr9KIf-20" style="edgeStyle=orthogonalEdgeStyle;rounded=0;orthogonalLoop=1;jettySize=auto;html=1;exitX=0.5;exitY=1;exitDx=0;exitDy=0;entryX=0;entryY=0.5;entryDx=0;entryDy=0;fontFamily=宋体;fontSource=https%3A%2F%2Ffonts.googleapis.com%2Fcss%3Ffamily%3D%25E5%25AE%258B%25E4%25BD%2593;fontSize=15;" parent="1" source="94YO7ol4zPPNbiTvRvZd-91" target="sRDRi-Vm4RHFxVxqKnM_-7" edge="1">
          <mxGeometry relative="1" as="geometry">
            <Array as="points">
              <mxPoint x="175" y="980" />
              <mxPoint x="560" y="980" />
              <mxPoint x="560" y="230" />
            </Array>
          </mxGeometry>
        </mxCell>
        <mxCell id="sRDRi-Vm4RHFxVxqKnM_-1" value="开始" style="rounded=1;whiteSpace=wrap;html=1;fontFamily=宋体;fontSource=https%3A%2F%2Ffonts.googleapis.com%2Fcss%3Ffamily%3D%25E5%25AE%258B%25E4%25BD%2593;fontSize=15;" vertex="1" parent="1">
          <mxGeometry x="470" y="-50" width="120" height="60" as="geometry" />
        </mxCell>
        <mxCell id="sRDRi-Vm4RHFxVxqKnM_-2" value="结束" style="rounded=1;whiteSpace=wrap;html=1;fontFamily=宋体;fontSource=https%3A%2F%2Ffonts.googleapis.com%2Fcss%3Ffamily%3D%25E5%25AE%258B%25E4%25BD%2593;fontSize=15;" vertex="1" parent="1">
          <mxGeometry x="678" y="950" width="120" height="60" as="geometry" />
        </mxCell>
        <mxCell id="t564csV_KIHhUvOr9KIf-17" style="edgeStyle=orthogonalEdgeStyle;rounded=0;orthogonalLoop=1;jettySize=auto;html=1;exitX=1;exitY=0.5;exitDx=0;exitDy=0;entryX=0.5;entryY=0;entryDx=0;entryDy=0;fontFamily=宋体;fontSource=https%3A%2F%2Ffonts.googleapis.com%2Fcss%3Ffamily%3D%25E5%25AE%258B%25E4%25BD%2593;fontSize=15;" parent="1" source="94YO7ol4zPPNbiTvRvZd-88" target="94YO7ol4zPPNbiTvRvZd-80" edge="1">
          <mxGeometry relative="1" as="geometry" />
        </mxCell>
        <mxCell id="sRDRi-Vm4RHFxVxqKnM_-5" style="edgeStyle=orthogonalEdgeStyle;rounded=0;orthogonalLoop=1;jettySize=auto;html=1;exitX=0.5;exitY=1;exitDx=0;exitDy=0;entryX=0.5;entryY=0;entryDx=0;entryDy=0;fontFamily=宋体;fontSource=https%3A%2F%2Ffonts.googleapis.com%2Fcss%3Ffamily%3D%25E5%25AE%258B%25E4%25BD%2593;fontSize=15;" edge="1" parent="1" source="sRDRi-Vm4RHFxVxqKnM_-4" target="94YO7ol4zPPNbiTvRvZd-100">
          <mxGeometry relative="1" as="geometry" />
        </mxCell>
        <mxCell id="sRDRi-Vm4RHFxVxqKnM_-4" value="评估种群" style="rounded=0;whiteSpace=wrap;html=1;fontSize=15;fontFamily=宋体;fontSource=https%3A%2F%2Ffonts.googleapis.com%2Fcss%3Ffamily%3D%25E5%25AE%258B%25E4%25BD%2593;" vertex="1" parent="1">
          <mxGeometry x="658" y="290" width="160" height="40" as="geometry" />
        </mxCell>
        <mxCell id="t564csV_KIHhUvOr9KIf-12" style="edgeStyle=orthogonalEdgeStyle;rounded=0;orthogonalLoop=1;jettySize=auto;html=1;exitX=0;exitY=0.5;exitDx=0;exitDy=0;entryX=0.5;entryY=0;entryDx=0;entryDy=0;fontFamily=宋体;fontSource=https%3A%2F%2Ffonts.googleapis.com%2Fcss%3Ffamily%3D%25E5%25AE%258B%25E4%25BD%2593;fontSize=15;" parent="1" source="94YO7ol4zPPNbiTvRvZd-85" target="94YO7ol4zPPNbiTvRvZd-76" edge="1">
          <mxGeometry relative="1" as="geometry" />
        </mxCell>
        <mxCell id="sRDRi-Vm4RHFxVxqKnM_-8" style="edgeStyle=orthogonalEdgeStyle;rounded=0;orthogonalLoop=1;jettySize=auto;html=1;exitX=0.5;exitY=1;exitDx=0;exitDy=0;entryX=0.5;entryY=0;entryDx=0;entryDy=0;" edge="1" parent="1" source="sRDRi-Vm4RHFxVxqKnM_-7" target="sRDRi-Vm4RHFxVxqKnM_-4">
          <mxGeometry relative="1" as="geometry" />
        </mxCell>
        <mxCell id="sRDRi-Vm4RHFxVxqKnM_-9" style="edgeStyle=orthogonalEdgeStyle;rounded=0;orthogonalLoop=1;jettySize=auto;html=1;exitX=1;exitY=0.5;exitDx=0;exitDy=0;entryX=1;entryY=0.5;entryDx=0;entryDy=0;" edge="1" parent="1" source="sRDRi-Vm4RHFxVxqKnM_-7" target="94YO7ol4zPPNbiTvRvZd-68">
          <mxGeometry relative="1" as="geometry">
            <Array as="points">
              <mxPoint x="900" y="230" />
              <mxPoint x="900" y="787" />
            </Array>
          </mxGeometry>
        </mxCell>
        <mxCell id="sRDRi-Vm4RHFxVxqKnM_-7" value="可行解占比小于p&lt;sub&gt;cr&lt;/sub&gt;" style="rhombus;whiteSpace=wrap;html=1;fontSize=15;fontFamily=宋体;fontSource=https%3A%2F%2Ffonts.googleapis.com%2Fcss%3Ffamily%3D%25E5%25AE%258B%25E4%25BD%2593;" vertex="1" parent="1">
          <mxGeometry x="651" y="200" width="178" height="60" as="geometry" />
        </mxCell>
        <mxCell id="sRDRi-Vm4RHFxVxqKnM_-10" value="是" style="text;html=1;align=center;verticalAlign=middle;resizable=0;points=[];autosize=1;strokeColor=none;fillColor=none;fontSize=15;fontFamily=宋体;fontSource=https%3A%2F%2Ffonts.googleapis.com%2Fcss%3Ffamily%3D%25E5%25AE%258B%25E4%25BD%2593;" vertex="1" parent="1">
          <mxGeometry x="698" y="260" width="40" height="30" as="geometry" />
        </mxCell>
        <mxCell id="sRDRi-Vm4RHFxVxqKnM_-11" value="否" style="text;html=1;align=center;verticalAlign=middle;resizable=0;points=[];autosize=1;strokeColor=none;fillColor=none;fontSize=15;fontFamily=宋体;fontSource=https%3A%2F%2Ffonts.googleapis.com%2Fcss%3Ffamily%3D%25E5%25AE%258B%25E4%25BD%2593;" vertex="1" parent="1">
          <mxGeometry x="830" y="200" width="40" height="30" as="geometry" />
        </mxCell>
      </root>
    </mxGraphModel>
  </diagram>
</mxfile>
